<svg data-v-423bf9ae="" xmlns="http://www.w3.org/2000/svg" viewBox="0 0 509 90" class="iconLeftSlogan"><!----><!----><!----><g data-v-423bf9ae="" id="53fe749b-82ec-4e43-ace8-430b9167825f" fill="black" transform="matrix(4.743082789406028,0,0,4.743082789406028,162.99310964491661,-17.21739059150947)"><path d="M7.21 6.86L6.69 6.86L5.29 6.86L5.29 7.13C5.29 7.28 5.39 7.36 5.57 7.38L5.64 7.38C5.67 7.38 5.70 7.39 5.74 7.39L5.95 7.39C6.05 7.39 6.16 7.41 6.29 7.41L4.14 12.45L4.06 12.66C4.03 12.73 4.02 12.80 3.99 12.87C3.98 12.80 3.93 12.73 3.92 12.66C3.89 12.59 3.88 12.52 3.85 12.45L1.68 7.41C1.83 7.41 1.97 7.39 2.09 7.39C2.20 7.39 2.28 7.38 2.31 7.38L2.39 7.38C2.58 7.36 2.67 7.28 2.67 7.13L2.67 6.86L1.26 6.86L1.26 6.86L0.70 6.86L0.24 6.86L0.24 7.13C0.24 7.28 0.34 7.36 0.52 7.38C0.52 7.38 0.66 7.38 0.94 7.39L3.65 13.57L2.42 16.28L2.90 16.28C2.98 16.28 3.05 16.25 3.09 16.21C3.14 16.17 3.18 16.13 3.21 16.06L6.97 7.39L7.22 7.39C7.31 7.39 7.35 7.38 7.38 7.38L7.45 7.38C7.63 7.36 7.73 7.28 7.73 7.13L7.73 6.86ZM14.11 13.29L14.01 13.29L13.79 13.29C13.69 13.29 13.58 13.27 13.47 13.27L13.47 9.28C13.47 8.89 13.43 8.55 13.33 8.23C13.23 7.91 13.09 7.64 12.91 7.42C12.73 7.20 12.49 7.03 12.21 6.92C11.93 6.79 11.61 6.73 11.23 6.73C10.72 6.73 10.28 6.83 9.87 7.01C9.46 7.20 9.09 7.48 8.72 7.84L8.83 8.05C8.88 8.13 8.95 8.18 9.04 8.18C9.11 8.18 9.21 8.12 9.31 8.02C9.41 7.92 9.55 7.84 9.72 7.73C9.88 7.62 10.07 7.52 10.30 7.42C10.54 7.32 10.82 7.28 11.16 7.28C11.70 7.28 12.12 7.45 12.40 7.80C12.68 8.15 12.81 8.64 12.81 9.28L12.81 10.01C12.03 10.02 11.35 10.09 10.79 10.21C10.23 10.32 9.77 10.47 9.41 10.65C9.04 10.84 8.79 11.06 8.62 11.31C8.46 11.56 8.37 11.83 8.37 12.12C8.37 12.45 8.43 12.73 8.53 12.95C8.64 13.17 8.78 13.36 8.95 13.50C9.11 13.64 9.32 13.75 9.55 13.82C9.77 13.89 10.00 13.93 10.23 13.93C10.51 13.93 10.78 13.90 11.02 13.85C11.26 13.79 11.47 13.71 11.68 13.61C11.89 13.51 12.08 13.38 12.28 13.23C12.46 13.08 12.64 12.91 12.84 12.73L12.94 13.62C12.96 13.75 13.06 13.82 13.20 13.82L13.22 13.82L13.47 13.82L14.39 13.82L14.39 13.54C14.39 13.38 14.29 13.30 14.11 13.29ZM12.81 12.26C12.64 12.43 12.49 12.60 12.32 12.74C12.15 12.88 11.97 13.01 11.77 13.12C11.58 13.23 11.37 13.30 11.14 13.36C10.92 13.41 10.67 13.44 10.40 13.44C10.22 13.44 10.04 13.43 9.87 13.37C9.70 13.31 9.56 13.24 9.44 13.13C9.31 13.02 9.20 12.88 9.13 12.71C9.04 12.54 9.02 12.35 9.02 12.11C9.02 11.86 9.09 11.63 9.24 11.44C9.39 11.24 9.62 11.09 9.93 10.95C10.23 10.81 10.63 10.70 11.10 10.61C11.58 10.53 12.15 10.47 12.81 10.46ZM26.50 13.29L26.42 13.29L26.32 13.29C26.28 13.29 26.21 13.27 26.11 13.27C26.01 13.27 25.89 13.26 25.76 13.26L25.76 9.37C25.76 8.95 25.70 8.57 25.61 8.25C25.51 7.92 25.37 7.64 25.17 7.42C24.98 7.20 24.74 7.03 24.46 6.92C24.18 6.80 23.88 6.75 23.53 6.75C23.30 6.75 23.04 6.78 22.82 6.85C22.60 6.92 22.39 7.01 22.19 7.15C21.99 7.29 21.81 7.46 21.66 7.67C21.50 7.88 21.39 8.13 21.31 8.43C21.20 7.90 21 7.48 20.69 7.18C20.38 6.89 19.98 6.75 19.47 6.75C19.25 6.75 19.04 6.76 18.84 6.83C18.65 6.89 18.47 6.99 18.28 7.10C18.12 7.21 17.95 7.36 17.79 7.52C17.64 7.67 17.50 7.84 17.36 8.04L17.30 7.03C17.29 6.92 17.22 6.86 17.09 6.86L16.73 6.86L15.72 6.86L15.72 7.13C15.72 7.28 15.81 7.36 15.99 7.38L16.07 7.38C16.10 7.38 16.13 7.39 16.17 7.39L16.38 7.39C16.48 7.39 16.60 7.41 16.73 7.41L16.73 13.26C16.56 13.26 16.42 13.29 16.31 13.29L16.09 13.29L15.99 13.29C15.81 13.30 15.72 13.38 15.72 13.54L15.72 13.82L16.73 13.82L17.39 13.82L18.40 13.82L18.40 13.54C18.40 13.38 18.31 13.30 18.13 13.29L18.05 13.29L17.95 13.29C17.91 13.29 17.84 13.27 17.74 13.27C17.64 13.27 17.51 13.26 17.39 13.26L17.39 8.55C17.64 8.15 17.93 7.84 18.26 7.62C18.58 7.39 18.93 7.28 19.31 7.28C19.82 7.28 20.22 7.45 20.48 7.81C20.75 8.18 20.89 8.69 20.89 9.37L20.89 13.82L21.56 13.82L21.56 13.82L22.57 13.82L22.57 13.54C22.57 13.38 22.47 13.30 22.29 13.29L22.22 13.29L22.11 13.29C22.06 13.29 21.99 13.27 21.90 13.27C21.80 13.27 21.69 13.26 21.56 13.26L21.56 9.37C21.56 9.02 21.60 8.72 21.70 8.46C21.80 8.19 21.94 7.97 22.11 7.80C22.27 7.63 22.47 7.49 22.69 7.41C22.92 7.32 23.16 7.28 23.39 7.28C23.94 7.28 24.36 7.46 24.65 7.81C24.95 8.18 25.10 8.68 25.10 9.37L25.10 13.82L25.76 13.82L26.77 13.82L26.77 13.54C26.77 13.38 26.68 13.30 26.50 13.29ZM28.97 4.89C29.02 4.94 29.09 4.98 29.16 5.01C29.23 5.04 29.32 5.07 29.40 5.07C29.48 5.07 29.57 5.04 29.64 5.01C29.71 4.98 29.78 4.94 29.83 4.89C29.89 4.83 29.95 4.76 29.97 4.69C30.00 4.62 30.03 4.54 30.03 4.45C30.03 4.37 30.00 4.30 29.97 4.21C29.95 4.14 29.89 4.07 29.83 4.02C29.78 3.96 29.71 3.91 29.64 3.88C29.57 3.85 29.48 3.84 29.40 3.84C29.32 3.84 29.23 3.85 29.16 3.88C29.09 3.91 29.02 3.96 28.97 4.02C28.91 4.07 28.87 4.14 28.84 4.21C28.81 4.28 28.78 4.37 28.78 4.45C28.78 4.54 28.81 4.62 28.84 4.69C28.87 4.76 28.91 4.83 28.97 4.89ZM30.46 13.29L30.39 13.29L30.28 13.29C30.24 13.29 30.17 13.27 30.07 13.27C29.97 13.27 29.86 13.26 29.74 13.26L29.74 6.85L29.06 6.85L28.06 6.85L28.06 7.13C28.06 7.28 28.15 7.36 28.34 7.38L28.41 7.38C28.43 7.38 28.48 7.39 28.52 7.39L28.73 7.39C28.83 7.39 28.94 7.41 29.06 7.41L29.06 13.26C28.91 13.26 28.77 13.29 28.66 13.29L28.42 13.29L28.34 13.29C28.15 13.30 28.06 13.38 28.06 13.54L28.06 13.82L29.06 13.82L29.74 13.82L30.74 13.82L30.74 13.54C30.74 13.38 30.65 13.30 30.46 13.29ZM34.40 13.29L34.33 13.29L34.22 13.29C34.17 13.29 34.10 13.27 34.01 13.27C33.91 13.27 33.80 13.26 33.67 13.26L33.67 3.63L33.00 3.63L31.99 3.63L31.99 3.91C31.99 4.06 32.09 4.14 32.27 4.16L32.34 4.16C32.37 4.16 32.41 4.17 32.45 4.17L32.66 4.17C32.76 4.17 32.87 4.19 33.00 4.19L33.00 13.26C32.84 13.26 32.70 13.29 32.59 13.29L32.35 13.29L32.27 13.29C32.09 13.30 31.99 13.38 31.99 13.54L31.99 13.82L33.00 13.82L33.67 13.82L34.68 13.82L34.68 13.54C34.68 13.38 34.58 13.30 34.40 13.29ZM38.89 6.73C38.40 6.73 37.95 6.83 37.56 7.00C37.17 7.17 36.85 7.41 36.58 7.71C36.32 8.02 36.11 8.39 35.97 8.81C35.83 9.23 35.74 9.69 35.74 10.19C35.74 10.78 35.83 11.31 35.98 11.77C36.13 12.24 36.34 12.61 36.62 12.94C36.90 13.26 37.24 13.50 37.63 13.66C38.02 13.83 38.46 13.90 38.93 13.90C39.20 13.90 39.47 13.89 39.72 13.83C39.97 13.78 40.22 13.71 40.45 13.62C40.67 13.54 40.88 13.44 41.06 13.31C41.24 13.19 41.40 13.06 41.51 12.92L41.33 12.70C41.30 12.66 41.24 12.63 41.19 12.63C41.15 12.63 41.06 12.66 40.96 12.74C40.87 12.82 40.73 12.91 40.54 13.01C40.38 13.10 40.15 13.17 39.90 13.26C39.65 13.34 39.34 13.38 38.99 13.38C38.60 13.38 38.25 13.31 37.93 13.17C37.60 13.03 37.34 12.84 37.11 12.57C36.89 12.31 36.72 11.97 36.60 11.58C36.47 11.19 36.41 10.71 36.41 10.19L36.41 10.07L41.44 10.07C41.51 10.07 41.55 10.05 41.58 10.01C41.61 9.97 41.64 9.90 41.64 9.80C41.64 9.31 41.57 8.88 41.43 8.50C41.29 8.12 41.10 7.78 40.85 7.53C40.61 7.28 40.32 7.08 39.98 6.94C39.65 6.80 39.28 6.73 38.89 6.73ZM38.91 7.24C39.23 7.24 39.51 7.29 39.77 7.41C40.04 7.52 40.26 7.67 40.45 7.88C40.63 8.09 40.78 8.33 40.88 8.62C40.98 8.92 41.03 9.25 41.03 9.63L36.44 9.63C36.48 9.27 36.57 8.93 36.69 8.64C36.82 8.34 36.99 8.09 37.20 7.88C37.41 7.67 37.66 7.52 37.94 7.41C38.22 7.29 38.54 7.24 38.91 7.24ZM45.08 13.93C45.37 13.93 45.65 13.86 45.93 13.75C46.20 13.64 46.42 13.48 46.61 13.29L46.42 12.98C46.38 12.94 46.35 12.92 46.31 12.92C46.28 12.92 46.23 12.94 46.17 12.99C46.12 13.05 46.05 13.09 45.96 13.15C45.88 13.20 45.77 13.26 45.64 13.31C45.51 13.37 45.39 13.38 45.22 13.38C45.08 13.38 44.94 13.36 44.83 13.31C44.72 13.27 44.62 13.20 44.53 13.12C44.45 13.03 44.38 12.92 44.32 12.78C44.27 12.64 44.25 12.49 44.25 12.29L44.25 7.57L46.45 7.57L46.45 7.07L44.25 7.07L44.25 4.41L43.93 4.41C43.88 4.41 43.85 4.44 43.82 4.47C43.79 4.49 43.76 4.54 43.76 4.58L43.60 7.07L42.41 7.15L42.41 7.41C42.41 7.46 42.42 7.49 42.45 7.52C42.48 7.55 42.53 7.57 42.59 7.57L43.58 7.57L43.58 12.33C43.58 12.88 43.71 13.27 43.97 13.54C44.24 13.80 44.60 13.93 45.08 13.93ZM48.12 13.29C48.12 13.47 48.17 13.61 48.30 13.73C48.43 13.86 48.58 13.93 48.76 13.93C48.85 13.93 48.93 13.90 49.01 13.87C49.10 13.85 49.15 13.79 49.21 13.73C49.27 13.68 49.32 13.62 49.35 13.54C49.38 13.45 49.41 13.38 49.41 13.29C49.41 13.20 49.38 13.12 49.35 13.03C49.32 12.95 49.27 12.88 49.21 12.82C49.15 12.77 49.10 12.71 49.01 12.68C48.93 12.66 48.85 12.63 48.76 12.63C48.66 12.63 48.58 12.66 48.50 12.68C48.41 12.71 48.36 12.77 48.30 12.82C48.24 12.88 48.19 12.95 48.16 13.03C48.13 13.12 48.12 13.20 48.12 13.29ZM57.65 13.54C57.65 13.38 57.57 13.30 57.39 13.29L57.32 13.29L57.22 13.29C57.18 13.29 57.11 13.27 57.02 13.27L56.71 13.27L56.71 3.63L56.06 3.63L55.05 3.63L55.05 3.91C55.05 4.06 55.15 4.14 55.33 4.16L55.40 4.16C55.43 4.16 55.45 4.17 55.50 4.17L55.72 4.17C55.82 4.17 55.93 4.19 56.06 4.19L56.06 7.76C55.80 7.42 55.51 7.17 55.16 7.00C54.81 6.82 54.40 6.73 53.93 6.73C53.44 6.73 53.00 6.83 52.63 7.01C52.25 7.20 51.94 7.46 51.67 7.78C51.41 8.11 51.23 8.50 51.09 8.93C50.95 9.37 50.89 9.84 50.89 10.35C50.89 11.54 51.13 12.43 51.60 13.02C52.08 13.61 52.75 13.90 53.61 13.90C54.12 13.90 54.59 13.79 55.01 13.54C55.43 13.29 55.78 12.95 56.08 12.53L56.15 13.64C56.17 13.76 56.24 13.82 56.35 13.82L56.71 13.82L57.65 13.82L57.65 13.61ZM56.06 12.01C55.76 12.43 55.43 12.77 55.05 13.01C54.67 13.24 54.26 13.37 53.80 13.37C53.09 13.37 52.53 13.13 52.15 12.64C51.77 12.15 51.58 11.38 51.58 10.35C51.58 9.88 51.62 9.48 51.73 9.10C51.84 8.72 52.00 8.39 52.21 8.12C52.42 7.85 52.67 7.63 52.98 7.48C53.28 7.32 53.65 7.25 54.05 7.25C54.46 7.25 54.84 7.34 55.16 7.50C55.48 7.67 55.79 7.95 56.06 8.34ZM61.88 6.73C61.39 6.73 60.94 6.83 60.55 7.00C60.16 7.17 59.84 7.41 59.57 7.71C59.30 8.02 59.09 8.39 58.95 8.81C58.81 9.23 58.73 9.69 58.73 10.19C58.73 10.78 58.81 11.31 58.97 11.77C59.12 12.24 59.33 12.61 59.61 12.94C59.89 13.26 60.23 13.50 60.62 13.66C61.01 13.83 61.45 13.90 61.92 13.90C62.19 13.90 62.45 13.89 62.71 13.83C62.96 13.78 63.21 13.71 63.43 13.62C63.66 13.54 63.87 13.44 64.05 13.31C64.23 13.19 64.39 13.06 64.50 12.92L64.32 12.70C64.29 12.66 64.23 12.63 64.18 12.63C64.13 12.63 64.05 12.66 63.95 12.74C63.85 12.82 63.71 12.91 63.53 13.01C63.36 13.10 63.14 13.17 62.89 13.26C62.64 13.34 62.33 13.38 61.98 13.38C61.59 13.38 61.24 13.31 60.91 13.17C60.59 13.03 60.33 12.84 60.10 12.57C59.88 12.31 59.71 11.97 59.58 11.58C59.46 11.19 59.40 10.71 59.40 10.19L59.40 10.07L64.43 10.07C64.50 10.07 64.54 10.05 64.57 10.01C64.60 9.97 64.62 9.90 64.62 9.80C64.62 9.31 64.55 8.88 64.41 8.50C64.27 8.12 64.09 7.78 63.84 7.53C63.60 7.28 63.31 7.08 62.97 6.94C62.64 6.80 62.27 6.73 61.88 6.73ZM61.89 7.24C62.22 7.24 62.50 7.29 62.76 7.41C63.03 7.52 63.25 7.67 63.43 7.88C63.62 8.09 63.77 8.33 63.87 8.62C63.97 8.92 64.02 9.25 64.02 9.63L59.43 9.63C59.47 9.27 59.56 8.93 59.68 8.64C59.81 8.34 59.98 8.09 60.19 7.88C60.40 7.67 60.65 7.52 60.93 7.41C61.21 7.29 61.53 7.24 61.89 7.24ZM72.25 6.86L71.74 6.86L70.34 6.86L70.34 7.13C70.34 7.28 70.43 7.36 70.62 7.38L70.70 7.38C70.73 7.38 70.76 7.39 70.80 7.39L71.01 7.39C71.11 7.39 71.22 7.41 71.34 7.41L69.20 12.52C69.16 12.61 69.12 12.73 69.09 12.82C69.06 12.92 69.05 13.02 69.02 13.12C69.01 13.09 69.01 13.05 68.99 12.98C68.98 12.91 68.96 12.85 68.95 12.82C68.92 12.73 68.89 12.63 68.85 12.52L66.71 7.41C66.86 7.41 67.02 7.39 67.13 7.39C67.24 7.39 67.33 7.38 67.35 7.38L67.44 7.38C67.62 7.36 67.72 7.28 67.72 7.13L67.72 6.86L66.30 6.86L65.79 6.86L65.28 6.86L65.28 7.13C65.28 7.28 65.37 7.36 65.55 7.38C65.55 7.38 65.70 7.38 66.01 7.39L68.73 13.82L69.31 13.82L72.02 7.39L72.28 7.39C72.37 7.39 72.41 7.38 72.44 7.38L72.51 7.38C72.69 7.36 72.79 7.28 72.79 7.13L72.79 6.86Z"></path></g><!----><g data-v-423bf9ae="" id="e6adf028-5db6-4eb1-a0bc-f3f87482d33e" transform="matrix(1.4413146365923606,0,0,1.4413146365923606,0.9342681703819693,-26.291860511649986)" stroke="none" fill="black"><path d="M97.938 68.771h-6.316V20.81a2.022 2.022 0 0 0-2.021-2.021H10.399a2.022 2.022 0 0 0-2.021 2.021v47.961H2.062A2.062 2.062 0 0 0 0 70.832v2.084c0 .103.008.204.022.306.527 3.521 3.348 7.447 7.159 7.922.083.01.169.017.252.017l84.51.071h.003c4.404 0 7.604-4.197 8.041-8.085.009-.075.013-.152.013-.23v-2.084a2.062 2.062 0 0 0-2.062-2.062zM12.42 22.831h75.16V68.77H59.985c-.133 0-.262.016-.386.04H41.16a2.07 2.07 0 0 0-.396-.04H12.42V22.831zm79.528 54.276l-84.362-.071c-1.461-.261-3.024-2.16-3.434-4.143h35.086c.702 1.246 2.017 2.085 3.519 2.085H57.99c1.502 0 2.816-.839 3.52-2.085h34.35c-.322 2.033-2.006 4.214-3.912 4.214zM38.84 37.498a2.083 2.083 0 0 0-2.947 0l-8.689 8.689a2.085 2.085 0 0 0 0 2.948l8.689 8.688a2.08 2.08 0 0 0 2.948 0 2.083 2.083 0 0 0 0-2.947l-7.216-7.215 7.216-7.216a2.084 2.084 0 0 0-.001-2.947zm20.521 20.325a2.081 2.081 0 0 0 2.948 0l8.688-8.688a2.085 2.085 0 0 0 0-2.948l-8.688-8.689a2.083 2.083 0 1 0-2.947 2.947l7.215 7.216-7.215 7.215a2.083 2.083 0 0 0-.001 2.947zm-17.568 4.452a2.085 2.085 0 0 0 2.797-.932l12.506-25.011a2.083 2.083 0 0 0-.933-2.796 2.087 2.087 0 0 0-2.797.932L40.861 59.479a2.083 2.083 0 0 0 .932 2.796z"></path></g><!----><g data-v-423bf9ae="" id="56b41ec6-b283-4844-bab4-f230856abb5b" fill="black" transform="matrix(1.0772394827893323,0,0,1.0772394827893323,163.75443331435608,53.87050580297659)"><path d="M0.35 13.60L0.35 13.60L0.55 11.66L0.88 11.71L1.07 13.21L1.07 13.21Q1.30 13.64 1.83 13.89L1.83 13.89L1.83 13.89Q2.36 14.14 2.96 14.14L2.96 14.14L2.96 14.14Q3.64 14.14 4.12 13.74L4.12 13.74L4.12 13.74Q4.60 13.33 4.60 12.61L4.60 12.61L4.60 12.61Q4.60 12.20 4.39 11.83L4.39 11.83L4.39 11.83Q4.17 11.46 3.82 11.18L3.82 11.18L3.82 11.18Q3.48 10.90 3.06 10.63L3.06 10.63L3.06 10.63Q2.64 10.36 2.22 10.07L2.22 10.07L2.22 10.07Q1.80 9.79 1.46 9.48L1.46 9.48L1.46 9.48Q1.11 9.17 0.90 8.75L0.90 8.75L0.90 8.75Q0.68 8.33 0.68 7.84L0.68 7.84L0.68 7.84Q0.68 6.88 1.38 6.29L1.38 6.29L1.38 6.29Q2.07 5.71 2.95 5.71L2.95 5.71L2.95 5.71Q3.54 5.71 4.08 5.90L4.08 5.90L4.08 5.90Q4.62 6.09 4.95 6.46L4.95 6.46L4.72 8.58L4.41 8.53L4.22 6.87L4.22 6.87Q4.04 6.54 3.62 6.32L3.62 6.32L3.62 6.32Q3.21 6.10 2.78 6.10L2.78 6.10L2.78 6.10Q2.18 6.10 1.77 6.48L1.77 6.48L1.77 6.48Q1.35 6.87 1.35 7.52L1.35 7.52L1.35 7.52Q1.35 7.96 1.58 8.35L1.58 8.35L1.58 8.35Q1.80 8.74 2.15 9.03L2.15 9.03L2.15 9.03Q2.50 9.32 2.93 9.61L2.93 9.61L2.93 9.61Q3.35 9.89 3.78 10.17L3.78 10.17L3.78 10.17Q4.20 10.45 4.56 10.75L4.56 10.75L4.56 10.75Q4.91 11.05 5.13 11.45L5.13 11.45L5.13 11.45Q5.35 11.85 5.35 12.29L5.35 12.29L5.35 12.29Q5.35 13.28 4.60 13.93L4.60 13.93L4.60 13.93Q3.85 14.57 2.60 14.57L2.60 14.57L2.60 14.57Q1.89 14.57 1.29 14.30L1.29 14.30L1.29 14.30Q0.69 14.03 0.35 13.60ZM13.85 9.75L13.85 9.75L13.85 9.75Q13.85 11.03 14.21 12.01L14.21 12.01L14.21 12.01Q14.57 13.00 15.29 13.57L15.29 13.57L15.29 13.57Q16.01 14.14 16.99 14.14L16.99 14.14L16.99 14.14Q17.56 14.14 18.05 13.92L18.05 13.92L18.05 13.92Q18.55 13.70 18.89 13.33L18.89 13.33L18.89 13.33Q19.24 12.96 19.48 12.49L19.48 12.49L19.48 12.49Q19.72 12.01 19.84 11.50L19.84 11.50L19.84 11.50Q19.95 10.99 19.95 10.48L19.95 10.48L19.95 10.48Q19.95 8.50 19.10 7.29L19.10 7.29L19.10 7.29Q18.25 6.07 16.80 6.07L16.80 6.07L16.80 6.07Q16.22 6.07 15.73 6.28L15.73 6.28L15.73 6.28Q15.24 6.49 14.90 6.85L14.90 6.85L14.90 6.85Q14.55 7.21 14.31 7.69L14.31 7.69L14.31 7.69Q14.08 8.16 13.96 8.69L13.96 8.69L13.96 8.69Q13.85 9.21 13.85 9.75ZM13.10 10.16L13.10 10.16L13.10 10.16Q13.10 8.16 14.19 6.92L14.19 6.92L14.19 6.92Q15.29 5.69 17.13 5.69L17.13 5.69L17.13 5.69Q18.27 5.69 19.08 6.27L19.08 6.27L19.08 6.27Q19.90 6.86 20.30 7.84L20.30 7.84L20.30 7.84Q20.69 8.83 20.69 10.11L20.69 10.11L20.69 10.11Q20.69 10.75 20.54 11.38L20.54 11.38L20.54 11.38Q20.39 12.00 20.07 12.58L20.07 12.58L20.07 12.58Q19.74 13.17 19.28 13.61L19.28 13.61L19.28 13.61Q18.82 14.05 18.14 14.32L18.14 14.32L18.14 14.32Q17.47 14.58 16.66 14.58L16.66 14.58L16.66 14.58Q15.61 14.58 14.78 13.98L14.78 13.98L14.78 13.98Q13.96 13.37 13.53 12.37L13.53 12.37L13.53 12.37Q13.10 11.37 13.10 10.16ZM29.63 6.36L28.42 6.18L28.46 5.89L34.66 5.89L34.43 8.09L34.10 8.04L33.95 6.24L30.33 6.24L30.33 10.07L32.61 10.07L32.87 9.11L33.26 9.06L33.04 11.72L32.67 11.77L32.55 10.43L30.33 10.43L30.33 13.92L32.01 14.03L31.93 14.40L28.44 14.40L28.46 14.11L29.63 13.90L29.63 6.36ZM42.43 8.09L42.36 5.89L49.42 5.89L49.18 8.16L48.84 8.12L48.73 6.24L46.19 6.24L46.19 13.90L47.40 14.08L47.33 14.40L44.23 14.40L44.26 14.11L45.46 13.90L45.46 6.24L43.03 6.24L42.79 8.15L42.43 8.09ZM57.94 6.34L57.11 6.15L57.16 5.89L59.84 5.89L59.82 6.11L58.69 6.32L60.65 13.18L62.69 6.18L63.01 6.14L64.94 13.18L67.16 6.36L65.88 6.13L65.91 5.89L68.53 5.89L68.51 6.14L67.70 6.34L65.01 14.49L64.57 14.57L62.73 7.63L60.72 14.49L60.23 14.57L57.94 6.34ZM80.29 6.98L78.92 10.75L81.61 10.75L80.29 6.98ZM78.97 14.40L76.24 14.40L76.28 14.11L77.25 13.90L80.24 5.82L80.60 5.73L83.44 13.95L84.34 14.08L84.29 14.39L81.49 14.39L81.55 14.10L82.69 13.90L81.74 11.13L78.78 11.13L77.77 13.95L79.03 14.08L78.97 14.40ZM93.85 6.18L93.85 10.11L95.40 10.11L95.40 10.11Q96.09 9.86 96.54 9.28L96.54 9.28L96.54 9.28Q97.00 8.70 97.00 8.02L97.00 8.02L97.00 8.02Q97.00 7.11 96.38 6.63L96.38 6.63L96.38 6.63Q95.76 6.15 94.68 6.15L94.68 6.15L93.85 6.18ZM95.22 14.40L92.03 14.40L92.08 14.11L93.15 13.90L93.15 6.51L92.05 6.37L92.11 6.13L92.11 6.13Q93.94 5.83 95.02 5.83L95.02 5.83L95.02 5.83Q95.79 5.83 96.39 6.05L96.39 6.05L96.39 6.05Q97.00 6.27 97.38 6.73L97.38 6.73L97.38 6.73Q97.75 7.19 97.75 7.83L97.75 7.83L97.75 7.83Q97.75 8.57 97.33 9.14L97.33 9.14L97.33 9.14Q96.90 9.72 95.87 10.23L95.87 10.23L95.87 10.23L97.19 12.19L97.19 12.19Q97.90 13.23 98.24 13.58L98.24 13.58L98.24 13.58Q98.59 13.92 98.97 14.05L98.97 14.05L99.30 14.16L99.26 14.42L99.26 14.42Q98.96 14.52 98.62 14.52L98.62 14.52L98.62 14.52Q98.33 14.52 98.08 14.40L98.08 14.40L98.08 14.40Q97.83 14.28 97.59 14.01L97.59 14.01L97.59 14.01Q97.34 13.75 97.16 13.48L97.16 13.48L97.16 13.48Q96.97 13.22 96.70 12.77L96.70 12.77L95.31 10.49L93.85 10.49L93.85 13.95L95.29 14.08L95.22 14.40ZM108.21 6.36L106.99 6.18L107.04 5.89L113.23 5.89L113.02 8.07L112.70 8.03L112.57 6.24L108.92 6.24L108.92 9.89L111.21 9.89L111.47 8.94L111.84 8.89L111.61 11.55L111.26 11.61L111.15 10.26L108.92 10.26L108.92 14.03L112.77 14.03L113.27 12.19L113.55 12.26L113.35 14.40L107.01 14.40L107.05 14.11L108.21 13.90L108.21 6.36ZM133.07 6.19L133.07 14.03L134.30 14.03L134.30 14.03Q136.10 14.03 137.20 12.95L137.20 12.95L137.20 12.95Q138.30 11.87 138.30 10.12L138.30 10.12L138.30 10.12Q138.30 8.20 137.25 7.18L137.25 7.18L137.25 7.18Q136.19 6.16 134.26 6.16L134.26 6.16L134.26 6.16Q133.26 6.16 133.07 6.19L133.07 6.19ZM134.11 14.40L131.17 14.40L131.22 14.11L132.38 13.90L132.38 6.51L131.20 6.36L131.27 6.12L131.27 6.12Q133.36 5.79 134.51 5.79L134.51 5.79L134.51 5.79Q135.47 5.79 136.25 6.03L136.25 6.03L136.25 6.03Q137.03 6.26 137.54 6.66L137.54 6.66L137.54 6.66Q138.05 7.05 138.39 7.59L138.39 7.59L138.39 7.59Q138.74 8.13 138.89 8.71L138.89 8.71L138.89 8.71Q139.04 9.29 139.04 9.92L139.04 9.92L139.04 9.92Q139.04 10.64 138.87 11.28L138.87 11.28L138.87 11.28Q138.69 11.93 138.31 12.50L138.31 12.50L138.31 12.50Q137.93 13.08 137.36 13.49L137.36 13.49L137.36 13.49Q136.80 13.91 135.97 14.15L135.97 14.15L135.97 14.15Q135.14 14.40 134.11 14.40L134.11 14.40ZM147.98 6.36L146.75 6.18L146.80 5.89L153.00 5.89L152.78 8.07L152.47 8.03L152.34 6.24L148.69 6.24L148.69 9.89L150.98 9.89L151.23 8.94L151.60 8.89L151.38 11.55L151.03 11.61L150.92 10.26L148.69 10.26L148.69 14.03L152.53 14.03L153.04 12.19L153.32 12.26L153.11 14.40L146.77 14.40L146.82 14.11L147.98 13.90L147.98 6.36ZM162.01 6.34L161.01 6.14L161.03 5.89L163.93 5.89L163.91 6.14L162.76 6.32L165.12 13.30L167.70 6.34L166.43 6.14L166.45 5.89L169.11 5.89L169.09 6.14L168.21 6.32L165.19 14.47L164.84 14.57L162.01 6.34ZM178.04 6.36L176.81 6.18L176.86 5.89L183.05 5.89L182.84 8.07L182.53 8.03L182.40 6.24L178.75 6.24L178.75 9.89L181.04 9.89L181.29 8.94L181.66 8.89L181.43 11.55L181.08 11.61L180.97 10.26L178.75 10.26L178.75 14.03L182.59 14.03L183.09 12.19L183.37 12.26L183.17 14.40L176.83 14.40L176.87 14.11L178.04 13.90L178.04 6.36ZM197.25 14.40L191.10 14.40L191.13 14.11L192.29 13.90L192.29 6.34L191.11 6.17L191.14 5.90L194.25 5.90L194.22 6.17L193.02 6.32L193.02 14.03L196.64 14.03L197.17 12.09L197.47 12.14L197.25 14.40ZM205.97 9.75L205.97 9.75L205.97 9.75Q205.97 11.03 206.33 12.01L206.33 12.01L206.33 12.01Q206.69 13.00 207.41 13.57L207.41 13.57L207.41 13.57Q208.13 14.14 209.10 14.14L209.10 14.14L209.10 14.14Q209.68 14.14 210.17 13.92L210.17 13.92L210.17 13.92Q210.66 13.70 211.01 13.33L211.01 13.33L211.01 13.33Q211.35 12.96 211.60 12.49L211.60 12.49L211.60 12.49Q211.84 12.01 211.96 11.50L211.96 11.50L211.96 11.50Q212.07 10.99 212.07 10.48L212.07 10.48L212.07 10.48Q212.07 8.50 211.22 7.29L211.22 7.29L211.22 7.29Q210.37 6.07 208.92 6.07L208.92 6.07L208.92 6.07Q208.34 6.07 207.85 6.28L207.85 6.28L207.85 6.28Q207.35 6.49 207.01 6.85L207.01 6.85L207.01 6.85Q206.67 7.21 206.43 7.69L206.43 7.69L206.43 7.69Q206.19 8.16 206.08 8.69L206.08 8.69L206.08 8.69Q205.97 9.21 205.97 9.75ZM205.21 10.16L205.21 10.16L205.21 10.16Q205.21 8.16 206.31 6.92L206.31 6.92L206.31 6.92Q207.41 5.69 209.25 5.69L209.25 5.69L209.25 5.69Q210.38 5.69 211.20 6.27L211.20 6.27L211.20 6.27Q212.02 6.86 212.41 7.84L212.41 7.84L212.41 7.84Q212.81 8.83 212.81 10.11L212.81 10.11L212.81 10.11Q212.81 10.75 212.66 11.38L212.66 11.38L212.66 11.38Q212.51 12.00 212.18 12.58L212.18 12.58L212.18 12.58Q211.86 13.17 211.40 13.61L211.40 13.61L211.40 13.61Q210.94 14.05 210.26 14.32L210.26 14.32L210.26 14.32Q209.58 14.58 208.78 14.58L208.78 14.58L208.78 14.58Q207.72 14.58 206.90 13.98L206.90 13.98L206.90 13.98Q206.08 13.37 205.65 12.37L205.65 12.37L205.65 12.37Q205.21 11.37 205.21 10.16ZM223.95 14.40L220.53 14.40L220.57 14.11L221.65 13.90L221.65 6.51L220.54 6.36L220.60 6.12L220.60 6.12Q220.77 6.09 221.22 6.02L221.22 6.02L221.22 6.02Q221.67 5.94 221.90 5.91L221.90 5.91L221.90 5.91Q222.13 5.88 222.54 5.84L222.54 5.84L222.54 5.84Q222.95 5.81 223.36 5.81L223.36 5.81L223.36 5.81Q224.05 5.81 224.64 5.96L224.64 5.96L224.64 5.96Q225.23 6.10 225.69 6.40L225.69 6.40L225.69 6.40Q226.15 6.69 226.41 7.18L226.41 7.18L226.41 7.18Q226.67 7.66 226.67 8.29L226.67 8.29L226.67 8.29Q226.67 8.90 226.39 9.43L226.39 9.43L226.39 9.43Q226.11 9.97 225.65 10.33L225.65 10.33L225.65 10.33Q225.19 10.69 224.59 10.90L224.59 10.90L224.59 10.90Q223.99 11.10 223.35 11.10L223.35 11.10L223.35 11.10Q223.08 11.10 223.01 11.09L223.01 11.09L222.94 10.80L223.31 10.78L223.31 10.78Q223.97 10.75 224.47 10.55L224.47 10.55L224.47 10.55Q224.96 10.36 225.25 10.03L225.25 10.03L225.25 10.03Q225.54 9.70 225.69 9.30L225.69 9.30L225.69 9.30Q225.83 8.90 225.83 8.43L225.83 8.43L225.83 8.43Q225.83 7.98 225.66 7.57L225.66 7.57L225.66 7.57Q225.49 7.16 225.17 6.83L225.17 6.83L225.17 6.83Q224.85 6.50 224.32 6.31L224.32 6.31L224.32 6.31Q223.80 6.11 223.15 6.11L223.15 6.11L222.40 6.15L222.40 13.95L224 14.08L223.95 14.40ZM235.59 6.36L234.36 6.18L234.41 5.89L240.60 5.89L240.39 8.07L240.08 8.03L239.95 6.24L236.30 6.24L236.30 9.89L238.59 9.89L238.84 8.94L239.21 8.89L238.98 11.55L238.64 11.61L238.53 10.26L236.30 10.26L236.30 14.03L240.14 14.03L240.65 12.19L240.93 12.26L240.72 14.40L234.38 14.40L234.42 14.11L235.59 13.90L235.59 6.36ZM250.46 6.18L250.46 10.11L252.01 10.11L252.01 10.11Q252.69 9.86 253.15 9.28L253.15 9.28L253.15 9.28Q253.61 8.70 253.61 8.02L253.61 8.02L253.61 8.02Q253.61 7.11 252.99 6.63L252.99 6.63L252.99 6.63Q252.37 6.15 251.28 6.15L251.28 6.15L250.46 6.18ZM251.83 14.40L248.64 14.40L248.68 14.11L249.75 13.90L249.75 6.51L248.66 6.37L248.72 6.13L248.72 6.13Q250.54 5.83 251.62 5.83L251.62 5.83L251.62 5.83Q252.39 5.83 253.00 6.05L253.00 6.05L253.00 6.05Q253.61 6.27 253.98 6.73L253.98 6.73L253.98 6.73Q254.36 7.19 254.36 7.83L254.36 7.83L254.36 7.83Q254.36 8.57 253.93 9.14L253.93 9.14L253.93 9.14Q253.50 9.72 252.47 10.23L252.47 10.23L252.47 10.23L253.79 12.19L253.79 12.19Q254.50 13.23 254.85 13.58L254.85 13.58L254.85 13.58Q255.19 13.92 255.58 14.05L255.58 14.05L255.90 14.16L255.86 14.42L255.86 14.42Q255.57 14.52 255.23 14.52L255.23 14.52L255.23 14.52Q254.94 14.52 254.69 14.40L254.69 14.40L254.69 14.40Q254.43 14.28 254.19 14.01L254.19 14.01L254.19 14.01Q253.95 13.75 253.76 13.48L253.76 13.48L253.76 13.48Q253.58 13.22 253.31 12.77L253.31 12.77L251.92 10.49L250.46 10.49L250.46 13.95L251.90 14.08L251.83 14.40Z"></path></g></svg>