<svg data-v-423bf9ae="" xmlns="http://www.w3.org/2000/svg" viewBox="0 0 344.1106708461473 60" class="font"><!----><!----><!----><g data-v-423bf9ae="" id="c8683b07-84b1-4b39-9840-9c8eda5e1c4e" fill="white" transform="matrix(4.743082789406028,0,0,4.743082789406028,-1.1383448228568227,-17.21739059150947)"><path d="M7.21 6.86L6.69 6.86L5.29 6.86L5.29 7.13C5.29 7.28 5.39 7.36 5.57 7.38L5.64 7.38C5.67 7.38 5.70 7.39 5.74 7.39L5.95 7.39C6.05 7.39 6.16 7.41 6.29 7.41L4.14 12.45L4.06 12.66C4.03 12.73 4.02 12.80 3.99 12.87C3.98 12.80 3.93 12.73 3.92 12.66C3.89 12.59 3.88 12.52 3.85 12.45L1.68 7.41C1.83 7.41 1.97 7.39 2.09 7.39C2.20 7.39 2.28 7.38 2.31 7.38L2.39 7.38C2.58 7.36 2.67 7.28 2.67 7.13L2.67 6.86L1.26 6.86L1.26 6.86L0.70 6.86L0.24 6.86L0.24 7.13C0.24 7.28 0.34 7.36 0.52 7.38C0.52 7.38 0.66 7.38 0.94 7.39L3.65 13.57L2.42 16.28L2.90 16.28C2.98 16.28 3.05 16.25 3.09 16.21C3.14 16.17 3.18 16.13 3.21 16.06L6.97 7.39L7.22 7.39C7.31 7.39 7.35 7.38 7.38 7.38L7.45 7.38C7.63 7.36 7.73 7.28 7.73 7.13L7.73 6.86ZM14.11 13.29L14.01 13.29L13.79 13.29C13.69 13.29 13.58 13.27 13.47 13.27L13.47 9.28C13.47 8.89 13.43 8.55 13.33 8.23C13.23 7.91 13.09 7.64 12.91 7.42C12.73 7.20 12.49 7.03 12.21 6.92C11.93 6.79 11.61 6.73 11.23 6.73C10.72 6.73 10.28 6.83 9.87 7.01C9.46 7.20 9.09 7.48 8.72 7.84L8.83 8.05C8.88 8.13 8.95 8.18 9.04 8.18C9.11 8.18 9.21 8.12 9.31 8.02C9.41 7.92 9.55 7.84 9.72 7.73C9.88 7.62 10.07 7.52 10.30 7.42C10.54 7.32 10.82 7.28 11.16 7.28C11.70 7.28 12.12 7.45 12.40 7.80C12.68 8.15 12.81 8.64 12.81 9.28L12.81 10.01C12.03 10.02 11.35 10.09 10.79 10.21C10.23 10.32 9.77 10.47 9.41 10.65C9.04 10.84 8.79 11.06 8.62 11.31C8.46 11.56 8.37 11.83 8.37 12.12C8.37 12.45 8.43 12.73 8.53 12.95C8.64 13.17 8.78 13.36 8.95 13.50C9.11 13.64 9.32 13.75 9.55 13.82C9.77 13.89 10.00 13.93 10.23 13.93C10.51 13.93 10.78 13.90 11.02 13.85C11.26 13.79 11.47 13.71 11.68 13.61C11.89 13.51 12.08 13.38 12.28 13.23C12.46 13.08 12.64 12.91 12.84 12.73L12.94 13.62C12.96 13.75 13.06 13.82 13.20 13.82L13.22 13.82L13.47 13.82L14.39 13.82L14.39 13.54C14.39 13.38 14.29 13.30 14.11 13.29ZM12.81 12.26C12.64 12.43 12.49 12.60 12.32 12.74C12.15 12.88 11.97 13.01 11.77 13.12C11.58 13.23 11.37 13.30 11.14 13.36C10.92 13.41 10.67 13.44 10.40 13.44C10.22 13.44 10.04 13.43 9.87 13.37C9.70 13.31 9.56 13.24 9.44 13.13C9.31 13.02 9.20 12.88 9.13 12.71C9.04 12.54 9.02 12.35 9.02 12.11C9.02 11.86 9.09 11.63 9.24 11.44C9.39 11.24 9.62 11.09 9.93 10.95C10.23 10.81 10.63 10.70 11.10 10.61C11.58 10.53 12.15 10.47 12.81 10.46ZM26.50 13.29L26.42 13.29L26.32 13.29C26.28 13.29 26.21 13.27 26.11 13.27C26.01 13.27 25.89 13.26 25.76 13.26L25.76 9.37C25.76 8.95 25.70 8.57 25.61 8.25C25.51 7.92 25.37 7.64 25.17 7.42C24.98 7.20 24.74 7.03 24.46 6.92C24.18 6.80 23.88 6.75 23.53 6.75C23.30 6.75 23.04 6.78 22.82 6.85C22.60 6.92 22.39 7.01 22.19 7.15C21.99 7.29 21.81 7.46 21.66 7.67C21.50 7.88 21.39 8.13 21.31 8.43C21.20 7.90 21 7.48 20.69 7.18C20.38 6.89 19.98 6.75 19.47 6.75C19.25 6.75 19.04 6.76 18.84 6.83C18.65 6.89 18.47 6.99 18.28 7.10C18.12 7.21 17.95 7.36 17.79 7.52C17.64 7.67 17.50 7.84 17.36 8.04L17.30 7.03C17.29 6.92 17.22 6.86 17.09 6.86L16.73 6.86L15.72 6.86L15.72 7.13C15.72 7.28 15.81 7.36 15.99 7.38L16.07 7.38C16.10 7.38 16.13 7.39 16.17 7.39L16.38 7.39C16.48 7.39 16.60 7.41 16.73 7.41L16.73 13.26C16.56 13.26 16.42 13.29 16.31 13.29L16.09 13.29L15.99 13.29C15.81 13.30 15.72 13.38 15.72 13.54L15.72 13.82L16.73 13.82L17.39 13.82L18.40 13.82L18.40 13.54C18.40 13.38 18.31 13.30 18.13 13.29L18.05 13.29L17.95 13.29C17.91 13.29 17.84 13.27 17.74 13.27C17.64 13.27 17.51 13.26 17.39 13.26L17.39 8.55C17.64 8.15 17.93 7.84 18.26 7.62C18.58 7.39 18.93 7.28 19.31 7.28C19.82 7.28 20.22 7.45 20.48 7.81C20.75 8.18 20.89 8.69 20.89 9.37L20.89 13.82L21.56 13.82L21.56 13.82L22.57 13.82L22.57 13.54C22.57 13.38 22.47 13.30 22.29 13.29L22.22 13.29L22.11 13.29C22.06 13.29 21.99 13.27 21.90 13.27C21.80 13.27 21.69 13.26 21.56 13.26L21.56 9.37C21.56 9.02 21.60 8.72 21.70 8.46C21.80 8.19 21.94 7.97 22.11 7.80C22.27 7.63 22.47 7.49 22.69 7.41C22.92 7.32 23.16 7.28 23.39 7.28C23.94 7.28 24.36 7.46 24.65 7.81C24.95 8.18 25.10 8.68 25.10 9.37L25.10 13.82L25.76 13.82L26.77 13.82L26.77 13.54C26.77 13.38 26.68 13.30 26.50 13.29ZM28.97 4.89C29.02 4.94 29.09 4.98 29.16 5.01C29.23 5.04 29.32 5.07 29.40 5.07C29.48 5.07 29.57 5.04 29.64 5.01C29.71 4.98 29.78 4.94 29.83 4.89C29.89 4.83 29.95 4.76 29.97 4.69C30.00 4.62 30.03 4.54 30.03 4.45C30.03 4.37 30.00 4.30 29.97 4.21C29.95 4.14 29.89 4.07 29.83 4.02C29.78 3.96 29.71 3.91 29.64 3.88C29.57 3.85 29.48 3.84 29.40 3.84C29.32 3.84 29.23 3.85 29.16 3.88C29.09 3.91 29.02 3.96 28.97 4.02C28.91 4.07 28.87 4.14 28.84 4.21C28.81 4.28 28.78 4.37 28.78 4.45C28.78 4.54 28.81 4.62 28.84 4.69C28.87 4.76 28.91 4.83 28.97 4.89ZM30.46 13.29L30.39 13.29L30.28 13.29C30.24 13.29 30.17 13.27 30.07 13.27C29.97 13.27 29.86 13.26 29.74 13.26L29.74 6.85L29.06 6.85L28.06 6.85L28.06 7.13C28.06 7.28 28.15 7.36 28.34 7.38L28.41 7.38C28.43 7.38 28.48 7.39 28.52 7.39L28.73 7.39C28.83 7.39 28.94 7.41 29.06 7.41L29.06 13.26C28.91 13.26 28.77 13.29 28.66 13.29L28.42 13.29L28.34 13.29C28.15 13.30 28.06 13.38 28.06 13.54L28.06 13.82L29.06 13.82L29.74 13.82L30.74 13.82L30.74 13.54C30.74 13.38 30.65 13.30 30.46 13.29ZM34.40 13.29L34.33 13.29L34.22 13.29C34.17 13.29 34.10 13.27 34.01 13.27C33.91 13.27 33.80 13.26 33.67 13.26L33.67 3.63L33.00 3.63L31.99 3.63L31.99 3.91C31.99 4.06 32.09 4.14 32.27 4.16L32.34 4.16C32.37 4.16 32.41 4.17 32.45 4.17L32.66 4.17C32.76 4.17 32.87 4.19 33.00 4.19L33.00 13.26C32.84 13.26 32.70 13.29 32.59 13.29L32.35 13.29L32.27 13.29C32.09 13.30 31.99 13.38 31.99 13.54L31.99 13.82L33.00 13.82L33.67 13.82L34.68 13.82L34.68 13.54C34.68 13.38 34.58 13.30 34.40 13.29ZM38.89 6.73C38.40 6.73 37.95 6.83 37.56 7.00C37.17 7.17 36.85 7.41 36.58 7.71C36.32 8.02 36.11 8.39 35.97 8.81C35.83 9.23 35.74 9.69 35.74 10.19C35.74 10.78 35.83 11.31 35.98 11.77C36.13 12.24 36.34 12.61 36.62 12.94C36.90 13.26 37.24 13.50 37.63 13.66C38.02 13.83 38.46 13.90 38.93 13.90C39.20 13.90 39.47 13.89 39.72 13.83C39.97 13.78 40.22 13.71 40.45 13.62C40.67 13.54 40.88 13.44 41.06 13.31C41.24 13.19 41.40 13.06 41.51 12.92L41.33 12.70C41.30 12.66 41.24 12.63 41.19 12.63C41.15 12.63 41.06 12.66 40.96 12.74C40.87 12.82 40.73 12.91 40.54 13.01C40.38 13.10 40.15 13.17 39.90 13.26C39.65 13.34 39.34 13.38 38.99 13.38C38.60 13.38 38.25 13.31 37.93 13.17C37.60 13.03 37.34 12.84 37.11 12.57C36.89 12.31 36.72 11.97 36.60 11.58C36.47 11.19 36.41 10.71 36.41 10.19L36.41 10.07L41.44 10.07C41.51 10.07 41.55 10.05 41.58 10.01C41.61 9.97 41.64 9.90 41.64 9.80C41.64 9.31 41.57 8.88 41.43 8.50C41.29 8.12 41.10 7.78 40.85 7.53C40.61 7.28 40.32 7.08 39.98 6.94C39.65 6.80 39.28 6.73 38.89 6.73ZM38.91 7.24C39.23 7.24 39.51 7.29 39.77 7.41C40.04 7.52 40.26 7.67 40.45 7.88C40.63 8.09 40.78 8.33 40.88 8.62C40.98 8.92 41.03 9.25 41.03 9.63L36.44 9.63C36.48 9.27 36.57 8.93 36.69 8.64C36.82 8.34 36.99 8.09 37.20 7.88C37.41 7.67 37.66 7.52 37.94 7.41C38.22 7.29 38.54 7.24 38.91 7.24ZM45.08 13.93C45.37 13.93 45.65 13.86 45.93 13.75C46.20 13.64 46.42 13.48 46.61 13.29L46.42 12.98C46.38 12.94 46.35 12.92 46.31 12.92C46.28 12.92 46.23 12.94 46.17 12.99C46.12 13.05 46.05 13.09 45.96 13.15C45.88 13.20 45.77 13.26 45.64 13.31C45.51 13.37 45.39 13.38 45.22 13.38C45.08 13.38 44.94 13.36 44.83 13.31C44.72 13.27 44.62 13.20 44.53 13.12C44.45 13.03 44.38 12.92 44.32 12.78C44.27 12.64 44.25 12.49 44.25 12.29L44.25 7.57L46.45 7.57L46.45 7.07L44.25 7.07L44.25 4.41L43.93 4.41C43.88 4.41 43.85 4.44 43.82 4.47C43.79 4.49 43.76 4.54 43.76 4.58L43.60 7.07L42.41 7.15L42.41 7.41C42.41 7.46 42.42 7.49 42.45 7.52C42.48 7.55 42.53 7.57 42.59 7.57L43.58 7.57L43.58 12.33C43.58 12.88 43.71 13.27 43.97 13.54C44.24 13.80 44.60 13.93 45.08 13.93ZM48.12 13.29C48.12 13.47 48.17 13.61 48.30 13.73C48.43 13.86 48.58 13.93 48.76 13.93C48.85 13.93 48.93 13.90 49.01 13.87C49.10 13.85 49.15 13.79 49.21 13.73C49.27 13.68 49.32 13.62 49.35 13.54C49.38 13.45 49.41 13.38 49.41 13.29C49.41 13.20 49.38 13.12 49.35 13.03C49.32 12.95 49.27 12.88 49.21 12.82C49.15 12.77 49.10 12.71 49.01 12.68C48.93 12.66 48.85 12.63 48.76 12.63C48.66 12.63 48.58 12.66 48.50 12.68C48.41 12.71 48.36 12.77 48.30 12.82C48.24 12.88 48.19 12.95 48.16 13.03C48.13 13.12 48.12 13.20 48.12 13.29ZM57.65 13.54C57.65 13.38 57.57 13.30 57.39 13.29L57.32 13.29L57.22 13.29C57.18 13.29 57.11 13.27 57.02 13.27L56.71 13.27L56.71 3.63L56.06 3.63L55.05 3.63L55.05 3.91C55.05 4.06 55.15 4.14 55.33 4.16L55.40 4.16C55.43 4.16 55.45 4.17 55.50 4.17L55.72 4.17C55.82 4.17 55.93 4.19 56.06 4.19L56.06 7.76C55.80 7.42 55.51 7.17 55.16 7.00C54.81 6.82 54.40 6.73 53.93 6.73C53.44 6.73 53.00 6.83 52.63 7.01C52.25 7.20 51.94 7.46 51.67 7.78C51.41 8.11 51.23 8.50 51.09 8.93C50.95 9.37 50.89 9.84 50.89 10.35C50.89 11.54 51.13 12.43 51.60 13.02C52.08 13.61 52.75 13.90 53.61 13.90C54.12 13.90 54.59 13.79 55.01 13.54C55.43 13.29 55.78 12.95 56.08 12.53L56.15 13.64C56.17 13.76 56.24 13.82 56.35 13.82L56.71 13.82L57.65 13.82L57.65 13.61ZM56.06 12.01C55.76 12.43 55.43 12.77 55.05 13.01C54.67 13.24 54.26 13.37 53.80 13.37C53.09 13.37 52.53 13.13 52.15 12.64C51.77 12.15 51.58 11.38 51.58 10.35C51.58 9.88 51.62 9.48 51.73 9.10C51.84 8.72 52.00 8.39 52.21 8.12C52.42 7.85 52.67 7.63 52.98 7.48C53.28 7.32 53.65 7.25 54.05 7.25C54.46 7.25 54.84 7.34 55.16 7.50C55.48 7.67 55.79 7.95 56.06 8.34ZM61.88 6.73C61.39 6.73 60.94 6.83 60.55 7.00C60.16 7.17 59.84 7.41 59.57 7.71C59.30 8.02 59.09 8.39 58.95 8.81C58.81 9.23 58.73 9.69 58.73 10.19C58.73 10.78 58.81 11.31 58.97 11.77C59.12 12.24 59.33 12.61 59.61 12.94C59.89 13.26 60.23 13.50 60.62 13.66C61.01 13.83 61.45 13.90 61.92 13.90C62.19 13.90 62.45 13.89 62.71 13.83C62.96 13.78 63.21 13.71 63.43 13.62C63.66 13.54 63.87 13.44 64.05 13.31C64.23 13.19 64.39 13.06 64.50 12.92L64.32 12.70C64.29 12.66 64.23 12.63 64.18 12.63C64.13 12.63 64.05 12.66 63.95 12.74C63.85 12.82 63.71 12.91 63.53 13.01C63.36 13.10 63.14 13.17 62.89 13.26C62.64 13.34 62.33 13.38 61.98 13.38C61.59 13.38 61.24 13.31 60.91 13.17C60.59 13.03 60.33 12.84 60.10 12.57C59.88 12.31 59.71 11.97 59.58 11.58C59.46 11.19 59.40 10.71 59.40 10.19L59.40 10.07L64.43 10.07C64.50 10.07 64.54 10.05 64.57 10.01C64.60 9.97 64.62 9.90 64.62 9.80C64.62 9.31 64.55 8.88 64.41 8.50C64.27 8.12 64.09 7.78 63.84 7.53C63.60 7.28 63.31 7.08 62.97 6.94C62.64 6.80 62.27 6.73 61.88 6.73ZM61.89 7.24C62.22 7.24 62.50 7.29 62.76 7.41C63.03 7.52 63.25 7.67 63.43 7.88C63.62 8.09 63.77 8.33 63.87 8.62C63.97 8.92 64.02 9.25 64.02 9.63L59.43 9.63C59.47 9.27 59.56 8.93 59.68 8.64C59.81 8.34 59.98 8.09 60.19 7.88C60.40 7.67 60.65 7.52 60.93 7.41C61.21 7.29 61.53 7.24 61.89 7.24ZM72.25 6.86L71.74 6.86L70.34 6.86L70.34 7.13C70.34 7.28 70.43 7.36 70.62 7.38L70.70 7.38C70.73 7.38 70.76 7.39 70.80 7.39L71.01 7.39C71.11 7.39 71.22 7.41 71.34 7.41L69.20 12.52C69.16 12.61 69.12 12.73 69.09 12.82C69.06 12.92 69.05 13.02 69.02 13.12C69.01 13.09 69.01 13.05 68.99 12.98C68.98 12.91 68.96 12.85 68.95 12.82C68.92 12.73 68.89 12.63 68.85 12.52L66.71 7.41C66.86 7.41 67.02 7.39 67.13 7.39C67.24 7.39 67.33 7.38 67.35 7.38L67.44 7.38C67.62 7.36 67.72 7.28 67.72 7.13L67.72 6.86L66.30 6.86L65.79 6.86L65.28 6.86L65.28 7.13C65.28 7.28 65.37 7.36 65.55 7.38C65.55 7.38 65.70 7.38 66.01 7.39L68.73 13.82L69.31 13.82L72.02 7.39L72.28 7.39C72.37 7.39 72.41 7.38 72.44 7.38L72.51 7.38C72.69 7.36 72.79 7.28 72.79 7.13L72.79 6.86Z"></path></g><!----><!----></svg>